<svg width="1700" height="431" viewBox="0 0 1700 431" fill="none" xmlns="http://www.w3.org/2000/svg">
<path d="M711.445 76.9891L710.345 68.7391" stroke="#51ADA6" stroke-width="3"/>
<path d="M705.12 87.1641L696.595 88.5391" stroke="#51ADA6" stroke-width="3"/>
<path d="M715.845 101.739L714.745 93.4891" stroke="#51ADA6" stroke-width="3"/>
<path d="M729.595 82.4891L721.07 83.8641" stroke="#51ADA6" stroke-width="3"/>
<path d="M-20.3473 41.528H164.094C160.114 39.9365 155.868 38.6102 151.356 37.2839C141.271 34.3661 130.922 31.9788 120.572 30.3872C115.795 11.0235 100.137 -1.17825 85.2754 0.148028C72.8024 1.20905 65.1063 11.2888 63.514 13.6761C58.4717 11.8193 52.8987 11.0235 47.591 11.2888C29.0141 12.8803 18.3988 28.7957 16.8064 31.183C10.7026 26.1432 2.21035 24.2863 -5.48578 26.4084C-12.3858 29.061 -17.9588 34.6314 -20.3473 41.528Z" fill="#EEF7F6" fill-opacity="0.5"/>
<path d="M1413.54 62.2672H1229.1C1233.08 60.9409 1237.32 59.3494 1241.83 58.0231C1251.92 55.1053 1262.27 52.718 1272.62 51.1264C1277.4 31.7627 1293.05 19.5609 1307.91 20.8872C1320.39 21.9482 1328.08 32.028 1329.68 34.4153C1334.72 32.5585 1340.29 31.7627 1345.6 32.028C1364.18 33.6195 1374.79 49.5349 1376.38 51.9222C1382.49 46.8823 1390.98 45.0255 1398.68 47.1476C1405.84 49.8001 1411.15 55.3705 1413.54 62.2672Z" fill="#EEF7F6" fill-opacity="0.5"/>
<path d="M1577.87 272.85H1762.31C1758.33 271.259 1754.08 269.932 1749.57 268.606C1739.48 265.688 1729.13 263.301 1718.78 261.709C1714.01 242.346 1698.35 230.144 1683.49 231.47C1671.02 232.531 1663.32 242.611 1661.73 244.998C1656.68 243.141 1651.11 242.346 1645.8 242.611C1627.23 244.202 1616.61 260.118 1615.02 262.505C1608.92 257.465 1600.42 255.608 1592.73 257.731C1585.83 260.383 1580.25 265.688 1577.87 272.85Z" fill="#EEF7F6" fill-opacity="0.5"/>
<path fill-rule="evenodd" clip-rule="evenodd" d="M635.301 213.34L552.673 330.002H591.988L635.301 268.736V330.005H552.388V364.047H635.301V397.232H678.416V364.047H701.412V330.005H678.416V212.964H635.576V212.952L635.568 212.964H635.301V213.34Z" fill="#51ADA6" fill-opacity="0.1"/>
<path d="M694.694 400.773C694.694 402.63 673.87 405.726 658.57 405.726C636.753 405.726 623.859 402.738 623.859 399.052C623.859 395.367 634.091 392.379 655.909 392.379C677.727 392.379 694.694 397.087 694.694 400.773Z" fill="#00474D" fill-opacity="0.03"/>
<path d="M1072.11 404.145C1072.11 405.896 1039.86 408.814 1016.17 408.814C982.379 408.814 962.41 405.998 962.41 402.523C962.41 399.049 978.257 396.232 1012.05 396.232C1045.84 396.232 1072.11 400.671 1072.11 404.145Z" fill="#00474D" fill-opacity="0.03"/>
<path fill-rule="evenodd" clip-rule="evenodd" d="M638.016 213.816L555.388 330.477H594.702L638.016 269.212V330.481H555.103V364.523H638.016V397.708H681.131V364.523H704.127V330.481H681.131V213.44H638.291V213.428L638.282 213.44H638.016V213.816Z" fill="#51ADA6"/>
<path fill-rule="evenodd" clip-rule="evenodd" d="M1125.88 268.203L1125.89 268.197L982.795 258.355L1000.91 288.058L1085.93 292.563L1025.95 329.135L982.785 258.345L957.584 273.713L1000.75 344.502L968.555 364.135L988.646 397.083L1020.84 377.45L1032.81 397.084L1058.02 381.716L1046.04 362.083L1145.97 301.148L1125.88 268.203Z" fill="#51ADA6" fill-opacity="0.2"/>
<path fill-rule="evenodd" clip-rule="evenodd" d="M1125.02 270.925L1125.03 270.919L981.932 261.077L1000.04 290.78L1085.06 295.285L1025.09 331.857L981.922 261.067L956.72 276.435L999.887 347.225L967.691 366.857L987.783 399.805L1019.98 380.173L1031.95 399.806L1057.15 384.439L1045.18 364.805L1145.11 303.87L1125.02 270.925Z" fill="#51ADA6"/>
<path d="M943.095 406.681C943.095 410.367 902.694 414.69 835.752 413.617C773.009 412.611 739.364 408.647 739.364 404.961C739.364 401.276 773.001 396.986 835.752 396.986C898.504 396.986 943.095 402.996 943.095 406.681Z" fill="#00474D" fill-opacity="0.03"/>
<path fill-rule="evenodd" clip-rule="evenodd" d="M836.49 304.201C877.89 322.882 900.561 292.66 918.659 250.927C936.756 209.194 944.239 172.119 902.028 153.072C859.817 134.025 837.039 164.198 818.941 205.931C800.843 247.664 795.09 285.52 836.49 304.201ZM850.238 271.59C862.776 277.247 872.563 258.59 882.886 234.785C893.209 210.981 900.801 191.333 887.621 185.386C874.441 179.438 865.037 198.268 854.714 222.073C844.391 245.878 837.7 265.933 850.238 271.59Z" fill="#BCD8D5"/>
<path fill-rule="evenodd" clip-rule="evenodd" d="M829.151 302.005C870.053 321.797 893.473 292.185 912.614 250.939C931.755 209.694 940.169 172.821 898.466 152.642C856.764 132.463 833.238 162.023 814.097 203.269C794.956 244.514 788.25 282.214 829.151 302.005ZM841.905 269.765C854.292 275.759 864.544 257.365 875.462 233.838C886.38 210.312 894.464 190.868 881.443 184.568C868.422 178.267 858.547 196.844 847.629 220.37C836.711 243.897 829.518 263.771 841.905 269.765Z" fill="#C5DDDB"/>
<path d="M770.545 402.256C779.138 402.256 786.104 395.294 786.104 386.705C786.104 378.116 779.138 371.153 770.545 371.153C761.952 371.153 754.986 378.116 754.986 386.705C754.986 395.294 761.952 402.256 770.545 402.256Z" fill="white"/>
<path d="M770.544 404.961C760.396 404.961 752.278 396.847 752.278 386.705C752.278 376.562 760.396 368.448 770.544 368.448C780.691 368.448 788.809 376.562 788.809 386.705C788.809 396.847 780.691 404.961 770.544 404.961ZM770.544 373.858C763.102 373.858 757.014 379.267 757.014 386.705C757.014 394.143 762.426 400.228 769.867 400.228C777.309 400.228 783.397 394.819 783.397 387.381C784.073 379.943 777.985 373.858 770.544 373.858Z" fill="#00474D"/>
<path d="M904.489 402.256C913.082 402.256 920.048 395.294 920.048 386.705C920.048 378.116 913.082 371.153 904.489 371.153C895.895 371.153 888.929 378.116 888.929 386.705C888.929 395.294 895.895 402.256 904.489 402.256Z" fill="white"/>
<path d="M904.487 404.961C894.34 404.961 886.222 396.847 886.222 386.705C886.222 376.562 894.34 368.448 904.487 368.448C914.634 368.448 922.752 376.562 922.752 386.705C922.752 396.847 914.634 404.961 904.487 404.961ZM904.487 373.858C897.046 373.858 890.957 379.943 890.957 387.381C890.957 394.819 897.046 400.904 904.487 400.904C911.928 400.904 918.017 394.819 918.017 387.381C918.017 379.943 911.928 373.858 904.487 373.858Z" fill="#00474D"/>
<path d="M957.931 181.151L951.166 183.855C949.137 184.532 947.107 186.56 946.431 188.589L943.725 198.055C940.342 210.902 935.607 223.073 929.519 234.568L889.606 317.736H906.518C918.018 317.736 928.166 327.202 928.166 339.373C928.166 351.544 918.695 361.01 906.518 361.01H756.338C744.837 361.01 736.043 369.8 736.043 381.295V382.648C736.043 383.324 735.366 384.676 734.013 384.676C733.337 384.676 731.984 384 731.984 382.648V381.295C731.984 367.772 742.808 356.953 756.338 356.953H906.518C915.989 356.953 924.107 348.839 924.107 339.373C924.107 329.907 915.989 321.793 906.518 321.793H838.869C838.192 321.793 836.84 321.117 836.84 319.764C836.84 319.088 837.516 317.736 838.869 317.736H884.87L925.46 233.215C930.872 221.721 935.607 209.55 938.989 197.379L941.695 187.912C942.372 184.532 945.078 181.827 948.46 180.475L955.225 177.77L957.931 181.151Z" fill="#00474D"/>
<path d="M736.717 247.415L736.717 247.665H736.717H930.869H930.87H930.87H930.87H930.87H930.87H930.87H930.871H930.871H930.871H930.871H930.872H930.872H930.872H930.872H930.873H930.873H930.873H930.874H930.874H930.874H930.875H930.875H930.876H930.876H930.876H930.877H930.877H930.878H930.878H930.879H930.879H930.88H930.88H930.881H930.881H930.881H930.882H930.882H930.883H930.884H930.884H930.885H930.886H930.886H930.887H930.887H930.888H930.889H930.89H930.89H930.891H930.892H930.892H930.893H930.893H930.894H930.895H930.896H930.896H930.897H930.898H930.899H930.9H930.9H930.9H930.901H930.902H930.903H930.904H930.905H930.906H930.907H930.907H930.908H930.909H930.91H930.911H930.912H930.913H930.914H930.915H930.915H930.916H930.917H930.918H930.918H930.919H930.92H930.921H930.922H930.922H930.923H930.924H930.925H930.925H930.926H930.927H930.928H930.929H930.929H930.931H930.932H930.932H930.933H930.934H930.935H930.936H930.936H930.937H930.938H930.939H930.939H930.941H930.942H930.943H930.943H930.944H930.945H930.946H930.946H930.948H930.949H930.949H930.95H930.951H930.952H930.953H930.954H930.955H930.956H930.956H930.957H930.958H930.959H930.96H930.961H930.962H930.962H930.963H930.964H930.965H930.966H930.967H930.968H930.969H930.969H930.971H930.972H930.972H930.973H930.975H930.975H930.976H930.977H930.978H930.978H930.98H930.981H930.982H930.983H930.984H930.985H930.986H930.987H930.987H930.989H930.99H930.99H930.991H930.993H930.993H930.994H930.995H930.996H930.996H930.998H930.998H930.999H931H931.001H931.002H931.003H931.004H931.004H931.006H931.007H931.008H931.01H931.011H931.012H931.012H931.014H931.015H931.015H931.016H931.017H931.018H931.019H931.02H931.02H931.021H931.023H931.023H931.024H931.025H931.026H931.027H931.028H931.028H931.029H931.031H931.032H931.033H931.035H931.036H931.036H931.037H931.038H931.039H931.04H931.041H931.041H931.043H931.043H931.044H931.045H931.045H931.046H931.048H931.049H931.05H931.05H931.052H931.052H931.053H931.054H931.055H931.055H931.057H931.057H931.058H931.059H931.059H931.061H931.061H931.062H931.063H931.064H931.064H931.066H931.067H931.068H931.068H931.069H931.07H931.071H931.072H931.073H931.074H931.074H931.076H931.076H931.077H931.078H931.079H931.08H931.081H931.082H931.082H931.083H931.084H931.084H931.085H931.086H931.087H931.088H931.089H931.09H931.09H931.091H931.093H931.093H931.094H931.095H931.095H931.096H931.097H931.097H931.098H931.099H931.1H931.1H931.101H931.102H931.102H931.103H931.104H931.104H931.105H931.105H931.106H931.107H931.107H931.108H931.109H931.11H931.11H931.111H931.112H931.113H931.113H931.114H931.115H931.115H931.116H931.116H931.117H931.118H931.118H931.119H931.119H931.12H931.121H931.121H931.122H931.123H931.123H931.124H931.125H931.125H931.126H931.127H931.127H931.128H931.129H931.129H931.13H931.131H931.131H931.132H931.132H931.133H931.133H931.134H931.135H931.135H931.136H931.136H931.137H931.138H931.138H931.139H931.139H931.14H931.14H931.141H931.141H931.142H931.142H931.143H931.143H931.144H931.144H931.145H931.145H931.146H931.146H931.147H931.147H931.147H931.148H931.149H931.149H931.15H931.15H931.15H931.151H931.151H931.152H931.152H931.153H931.153H931.154H931.154H931.154H931.155H931.155H931.156H931.156H931.157H931.157H931.157H931.158H931.158H931.158H931.158H931.159H931.159H931.16H931.161H931.161H931.161H931.161H931.161H931.162H931.162H931.162H931.162H931.163H931.163H931.164H931.164H931.165H931.165H931.165H931.165H931.165H931.165H931.166H931.166H931.166H931.166H931.167H931.167H931.167H931.168H931.168H931.168H931.168H931.168H931.169H931.169H931.17L931.17 247.452C931.294 247.294 931.367 247.131 931.4 246.967C931.442 246.757 931.413 246.564 931.36 246.406C931.308 246.249 931.23 246.121 931.168 246.033C931.136 245.989 931.108 245.954 931.086 245.929C931.075 245.917 931.066 245.907 931.059 245.899L931.051 245.891L931.048 245.888L931.047 245.887L931.046 245.886L931.046 245.886C931.046 245.886 931.046 245.886 930.869 246.063L931.046 245.886L930.973 245.813H930.869H736.717C736.504 245.813 736.328 245.866 736.188 245.96C736.049 246.053 735.959 246.175 735.902 246.289C735.845 246.402 735.818 246.512 735.805 246.592C735.798 246.632 735.795 246.667 735.793 246.692C735.792 246.704 735.791 246.715 735.791 246.723L735.791 246.733L735.791 246.736L735.791 246.738L735.791 246.738L735.791 246.738C735.791 246.739 735.791 246.739 736.041 246.739L735.791 246.739V246.739C735.791 246.952 735.845 247.128 735.939 247.268C736.031 247.407 736.153 247.497 736.267 247.554C736.381 247.611 736.491 247.638 736.571 247.651C736.611 247.658 736.645 247.661 736.67 247.663C736.683 247.664 736.693 247.664 736.701 247.665L736.711 247.665L736.715 247.665L736.716 247.665L736.717 247.665L736.717 247.665C736.717 247.665 736.717 247.665 736.717 247.415Z" fill="#58AEA6" stroke="#58AEA6" stroke-width="0.5"/>
<path d="M924.09 280.796L924.098 280.797H924.107H924.12C924.278 280.797 924.416 280.797 924.525 280.785C924.636 280.773 924.771 280.743 924.875 280.639C924.98 280.535 925.009 280.4 925.021 280.289C925.033 280.18 925.033 280.042 925.033 279.884V279.871V279.767L924.96 279.694L924.283 279.018L924.217 278.952L924.124 278.945L736.06 266.098L735.947 266.09L735.866 266.171L735.19 266.847L735.116 266.92V267.024C735.116 267.028 735.116 267.033 735.116 267.037C735.116 267.195 735.116 267.333 735.129 267.442C735.141 267.553 735.17 267.688 735.274 267.792C735.379 267.896 735.514 267.926 735.624 267.938C735.733 267.95 735.872 267.95 736.029 267.95L736.034 267.95L924.09 280.796Z" fill="#58AEA6" stroke="#58AEA6" stroke-width="0.5"/>
<path d="M865.888 312.573L865.908 312.576H865.929H911.253C915.443 312.576 918.242 309.776 918.94 306.29L938.557 213.658L938.563 213.633V213.607C938.563 213.394 938.509 213.218 938.415 213.077C938.322 212.938 938.201 212.848 938.086 212.791C937.973 212.735 937.863 212.708 937.783 212.694C937.743 212.688 937.708 212.684 937.683 212.682C937.671 212.682 937.66 212.681 937.652 212.681L937.642 212.681L937.639 212.68L937.637 212.68L937.637 212.68L937.637 212.68C937.637 212.68 937.636 212.68 937.636 212.93L937.636 212.68C937.424 212.68 937.247 212.734 937.107 212.828C937.05 212.866 937.002 212.908 936.96 212.953C936.889 212.882 936.809 212.829 936.733 212.791C936.62 212.735 936.51 212.708 936.43 212.694C936.39 212.688 936.356 212.684 936.33 212.682C936.318 212.682 936.307 212.681 936.299 212.681L936.289 212.681L936.286 212.68L936.285 212.68L936.284 212.68L936.284 212.68C936.284 212.68 936.284 212.68 936.284 212.93L936.284 212.68L936.27 212.681L737.765 223.499L737.671 223.505L737.603 223.57L735.192 225.929L735.116 226.003V226.108V288.022V288.115L735.177 288.186L736.47 289.682V290.013V290.225L736.678 290.26L737.017 290.316L737.858 291.291L737.918 291.359L738.007 291.374L865.888 312.573ZM865.949 311.4L737.277 289.853L736.97 289.496V226.014L936.291 215.209C936.369 215.209 936.443 215.201 936.511 215.186L917.097 306.189L917.097 306.192C916.445 309.447 913.849 311.4 910.577 311.4H865.949Z" fill="#58AEA6" stroke="#58AEA6" stroke-width="0.5"/>
<path d="M761.588 293.826L761.588 293.826V293.835C761.588 293.949 761.6 294.05 761.628 294.136C761.655 294.221 761.704 294.31 761.791 294.37C761.884 294.435 761.991 294.445 762.083 294.42C762.168 294.396 762.235 294.345 762.281 294.292C762.366 294.194 762.439 294.011 762.345 293.83C762.291 293.726 762.203 293.662 762.1 293.626L766.058 223.087L766.058 223.087V223.073C766.058 222.86 766.004 222.684 765.91 222.543C765.818 222.404 765.696 222.315 765.582 222.258C765.468 222.201 765.358 222.174 765.278 222.161C765.238 222.154 765.203 222.151 765.178 222.149C765.166 222.148 765.155 222.147 765.147 222.147L765.137 222.147L765.134 222.147L765.133 222.147L765.132 222.147L765.132 222.147C765.132 222.147 765.131 222.147 765.131 222.397L765.131 222.147H765.131C764.919 222.147 764.742 222.201 764.602 222.295C764.463 222.387 764.373 222.509 764.316 222.623C764.259 222.736 764.232 222.847 764.219 222.926C764.212 222.967 764.209 223.001 764.207 223.026C764.206 223.039 764.206 223.049 764.205 223.057L764.205 223.067L764.205 223.067L764.205 223.071L761.589 293.821L761.588 293.826ZM761.934 294.098C761.934 294.098 761.933 294.097 761.931 294.096C761.933 294.097 761.934 294.097 761.934 294.098ZM762.107 293.992C762.107 293.992 762.107 293.992 762.107 293.991L762.107 293.992Z" fill="#58AEA6" stroke="#58AEA6" stroke-width="0.5"/>
<path d="M788.662 299.053H788.662H788.665H788.669H788.672H788.676H788.679H788.683H788.686H788.69H788.693H788.697H788.7H788.704H788.708H788.711H788.715H788.718H788.722H788.726H788.729H788.733H788.737H788.74H788.744H788.748H788.752H788.755H788.759H788.763H788.767H788.771H788.775H788.778H788.782H788.786H788.79H788.794H788.798H788.802H788.806H788.81H789.041L789.059 298.823L795.147 221.74L795.148 221.731V221.721C795.148 221.508 795.094 221.332 795 221.191C794.908 221.052 794.786 220.963 794.672 220.905C794.558 220.849 794.448 220.822 794.368 220.809C794.328 220.802 794.294 220.798 794.268 220.797C794.256 220.796 794.245 220.795 794.238 220.795L794.228 220.795L794.224 220.795L794.223 220.795L794.222 220.795L794.222 220.795C794.222 220.795 794.222 220.795 794.222 221.045L794.222 220.795H794.222C794.009 220.795 793.833 220.848 793.692 220.942C793.553 221.035 793.463 221.157 793.406 221.271C793.349 221.384 793.322 221.494 793.309 221.574C793.302 221.614 793.299 221.649 793.297 221.674C793.296 221.686 793.296 221.697 793.295 221.705L793.295 221.708L787.224 298.572C787.212 298.62 787.208 298.663 787.206 298.692C787.204 298.729 787.204 298.762 787.205 298.786C787.206 298.798 787.206 298.808 787.207 298.816L787.208 298.825L787.208 298.829L787.208 298.83L787.208 298.83L787.208 298.831C787.208 298.831 787.208 298.831 787.457 298.803L787.208 298.831L787.551 298.825L787.551 299.053H787.551H787.551H787.551H787.551H787.551H787.551H787.551H787.552H787.552H787.552H787.552H787.552H787.552H787.553H787.553H787.553H787.553H787.554H787.554H787.554H787.555H787.555H787.555H787.556H787.556H787.557H787.557H787.557H787.558H787.558H787.559H787.559H787.56H787.56H787.561H787.562H787.562H787.563H787.563H787.564H787.565H787.565H787.566H787.567H787.567H787.568H787.569H787.569H787.57H787.571H787.572H787.573H787.573H787.574H787.575H787.576H787.577H787.578H787.579H787.58H787.581H787.582H787.583H787.584H787.585H787.586H787.587H787.588H787.589H787.59H787.591H787.592H787.593H787.594H787.596H787.597H787.598H787.599H787.6H787.602H787.603H787.604H787.606H787.607H787.608H787.61H787.611H787.612H787.614H787.615H787.616H787.618H787.619H787.621H787.622H787.624H787.625H787.627H787.628H787.63H787.631H787.633H787.635H787.636H787.638H787.64H787.641H787.643H787.645H787.646H787.648H787.65H787.652H787.653H787.655H787.657H787.659H787.661H787.662H787.664H787.666H787.668H787.67H787.672H787.674H787.676H787.678H787.68H787.682H787.684H787.686H787.688H787.69H787.692H787.694H787.696H787.698H787.7H787.703H787.705H787.707H787.709H787.711H787.714H787.716H787.718H787.72H787.723H787.725H787.727H787.73H787.732H787.735H787.737H787.739H787.742H787.744H787.747H787.749H787.752H787.754H787.757H787.759H787.762H787.764H787.767H787.769H787.772H787.775H787.777H787.78H787.783H787.785H787.788H787.791H787.793H787.796H787.799H787.802H787.805H787.807H787.81H787.813H787.816H787.819H787.822H787.825H787.827H787.83H787.833H787.836H787.839H787.842H787.845H787.848H787.851H787.854H787.857H787.861H787.864H787.867H787.87H787.873H787.876H787.879H787.883H787.886H787.889H787.892H787.896H787.899H787.902H787.905H787.909H787.912H787.915H787.919H787.922H787.926H787.929H787.932H787.936H787.939H787.943H787.946H787.95H787.953H787.957H787.96H787.964H787.968H787.971H787.975H787.978H787.982H787.986H787.989H787.993H787.997H788.001H788.004H788.008H788.012H788.016H788.019H788.023H788.027H788.031H788.035H788.039H788.043H788.046H788.05H788.054H788.058H788.058H788.058H788.058H788.058H788.058H788.058H788.058H788.058H788.058H788.059H788.059H788.059H788.059H788.059H788.059H788.059H788.059H788.059H788.059H788.059H788.059H788.059H788.059H788.059H788.059H788.059H788.059H788.059H788.059H788.06H788.06H788.06H788.06H788.06H788.06H788.06H788.06H788.06H788.06H788.06H788.061H788.061H788.061H788.061H788.061H788.061H788.061H788.061H788.062H788.062H788.062H788.062H788.062H788.062H788.062H788.062H788.063H788.063H788.063H788.063H788.063H788.063H788.064H788.064H788.064H788.064H788.064H788.065H788.065H788.065H788.065H788.065H788.066H788.066H788.066H788.066H788.066H788.067H788.067H788.067H788.067H788.068H788.068H788.068H788.068H788.069H788.069H788.069H788.069H788.07H788.07H788.07H788.07H788.071H788.071H788.071H788.072H788.072H788.072H788.073H788.073H788.073H788.074H788.074H788.074H788.075H788.075H788.075H788.076H788.076H788.076H788.077H788.077H788.077H788.078H788.078H788.079H788.079H788.079H788.08H788.08H788.081H788.081H788.081H788.082H788.082H788.083H788.083H788.084H788.084H788.084H788.085H788.085H788.086H788.086H788.087H788.087H788.088H788.088H788.089H788.089H788.09H788.09H788.091H788.091H788.092H788.092H788.093H788.093H788.094H788.095H788.095H788.096H788.096H788.097H788.097H788.098H788.099H788.099H788.1H788.1H788.101H788.102H788.102H788.103H788.104H788.104H788.105H788.106H788.106H788.107H788.108H788.108H788.109H788.11H788.11H788.111H788.112H788.112H788.113H788.114H788.115H788.115H788.116H788.117H788.118H788.118H788.119H788.12H788.121H788.122H788.122H788.123H788.124H788.125H788.126H788.126H788.127H788.128H788.129H788.13H788.131H788.132H788.132H788.133H788.134H788.135H788.136H788.137H788.138H788.139H788.14H788.141H788.142H788.142H788.143H788.144H788.145H788.146H788.147H788.148H788.149H788.15H788.151H788.152H788.153H788.154H788.155H788.157H788.158H788.159H788.16H788.161H788.162H788.163H788.164H788.165H788.166H788.167H788.169H788.17H788.171H788.172H788.173H788.174H788.175H788.177H788.178H788.179H788.18H788.181H788.183H788.184H788.185H788.186H788.188H788.189H788.19H788.191H788.193H788.194H788.195H788.197H788.198H788.199H788.201H788.202H788.203H788.205H788.206H788.207H788.209H788.21H788.212H788.213H788.214H788.216H788.217H788.219H788.22H788.222H788.223H788.225H788.226H788.228H788.229H788.231H788.232H788.234H788.235H788.237H788.238H788.24H788.241H788.243H788.244H788.246H788.248H788.249H788.251H788.253H788.254H788.256H788.258H788.259H788.261H788.263H788.264H788.266H788.268H788.269H788.271H788.273H788.275H788.276H788.278H788.28H788.282H788.283H788.285H788.287H788.289H788.291H788.293H788.294H788.296H788.298H788.3H788.302H788.304H788.306H788.308H788.31H788.312H788.314H788.315H788.317H788.319H788.321H788.323H788.325H788.327H788.329H788.331H788.334H788.336H788.338H788.34H788.342H788.344H788.346H788.348H788.35H788.352H788.355H788.357H788.359H788.361H788.363H788.365H788.368H788.37H788.372H788.374H788.377H788.379H788.381H788.383H788.386H788.388H788.39H788.393H788.395H788.397H788.4H788.402H788.404H788.407H788.409H788.412H788.414H788.416H788.419H788.421H788.424H788.426H788.429H788.431H788.434H788.436H788.439H788.441H788.444H788.447H788.449H788.452H788.454H788.457H788.46H788.462H788.465H788.467H788.47H788.473H788.475H788.478H788.481H788.484H788.486H788.489H788.492H788.495H788.497H788.5H788.503H788.506H788.509H788.511H788.514H788.517H788.52H788.523H788.526H788.529H788.532H788.535H788.538H788.54H788.543H788.546H788.549H788.552H788.555H788.558H788.561H788.565H788.568H788.571H788.574H788.577H788.58H788.583H788.586H788.589H788.593H788.596H788.599H788.602H788.605H788.609H788.612H788.615H788.618H788.622H788.625H788.628H788.631H788.635H788.638H788.641H788.645H788.648H788.652H788.655H788.658H788.662Z" fill="#58AEA6" stroke="#58AEA6" stroke-width="0.5"/>
<path d="M813.839 303.787H813.839H813.839H813.84L813.841 303.787L814.442 303.787L814.317 303.661C814.423 303.604 814.532 303.518 814.617 303.39C814.709 303.253 814.763 303.081 814.765 302.874L823.558 219.719L823.559 219.705V219.692C823.559 219.479 823.506 219.303 823.412 219.163C823.319 219.024 823.197 218.934 823.083 218.877C822.97 218.82 822.86 218.793 822.78 218.78C822.739 218.773 822.705 218.77 822.68 218.768C822.667 218.767 822.657 218.767 822.649 218.766L822.639 218.766L822.635 218.766L822.634 218.766L822.633 218.766L822.633 218.766C822.633 218.766 822.633 218.766 822.633 219.016L822.633 218.766H822.633C822.42 218.766 822.244 218.82 822.103 218.914C821.964 219.006 821.875 219.128 821.817 219.242C821.761 219.356 821.734 219.466 821.72 219.545C821.714 219.586 821.71 219.62 821.708 219.645C821.707 219.658 821.707 219.668 821.707 219.676C821.707 219.676 821.707 219.676 821.707 219.676L812.913 302.834L813.252 302.958C813.281 303.044 813.147 303.094 813 303.051L812.992 303.044L812.989 303.041L812.996 303.048L813.07 303.122L813.331 303.383L813.331 303.537L813.331 303.787H813.331H813.331H813.331H813.331H813.332H813.332H813.332H813.332H813.332H813.332H813.332H813.333H813.333H813.333H813.333H813.334H813.334H813.334H813.334H813.335H813.335H813.335H813.336H813.336H813.337H813.337H813.337H813.338H813.338H813.339H813.339H813.34H813.34H813.341H813.341H813.342H813.342H813.343H813.344H813.344H813.345H813.346H813.346H813.347H813.348H813.348H813.349H813.35H813.351H813.351H813.352H813.353H813.354H813.355H813.356H813.356H813.357H813.358H813.359H813.36H813.361H813.362H813.363H813.364H813.365H813.366H813.367H813.368H813.369H813.37H813.371H813.373H813.374H813.375H813.376H813.377H813.378H813.38H813.381H813.382H813.383H813.385H813.386H813.387H813.389H813.39H813.391H813.393H813.394H813.395H813.397H813.398H813.4H813.401H813.403H813.404H813.406H813.407H813.409H813.41H813.412H813.413H813.415H813.417H813.418H813.42H813.422H813.423H813.425H813.427H813.428H813.43H813.432H813.434H813.435H813.437H813.439H813.441H813.443H813.445H813.447H813.448H813.45H813.452H813.454H813.456H813.458H813.46H813.462H813.464H813.466H813.468H813.47H813.472H813.474H813.477H813.479H813.481H813.483H813.485H813.487H813.49H813.492H813.494H813.496H813.499H813.501H813.503H813.505H813.508H813.51H813.513H813.515H813.517H813.52H813.522H813.525H813.527H813.529H813.532H813.534H813.537H813.539H813.542H813.545H813.547H813.55H813.552H813.555H813.558H813.56H813.563H813.566H813.568H813.571H813.574H813.577H813.579H813.582H813.585H813.588H813.591H813.593H813.596H813.599H813.602H813.605H813.608H813.611H813.614H813.617H813.62H813.623H813.626H813.629H813.632H813.635H813.638H813.641H813.644H813.647H813.65H813.653H813.657H813.66H813.663H813.666H813.669H813.673H813.676H813.679H813.683H813.686H813.689H813.692H813.696H813.699H813.703H813.706H813.709H813.713H813.716H813.72H813.723H813.727H813.73H813.734H813.737H813.741H813.744H813.748H813.752H813.755H813.759H813.762H813.766H813.77H813.773H813.777H813.781H813.785H813.788H813.792H813.796H813.8H813.804H813.807H813.811H813.815H813.819H813.823H813.827H813.831H813.835H813.839Z" fill="#58AEA6" stroke="#58AEA6" stroke-width="0.5"/>
<path d="M865.752 312.503L865.825 312.577H865.929L865.97 312.577C866.269 312.577 866.494 312.577 866.717 312.466C866.831 312.409 866.935 312.328 867.047 312.227C867.158 312.128 867.289 311.997 867.454 311.832L867.459 311.827L867.516 311.77L867.529 311.689L882.412 216.35L882.415 216.331V216.311C882.415 216.099 882.361 215.922 882.267 215.782C882.174 215.643 882.052 215.553 881.938 215.496C881.825 215.44 881.715 215.412 881.635 215.399C881.595 215.392 881.56 215.389 881.535 215.387C881.523 215.386 881.512 215.386 881.504 215.385L881.494 215.385L881.491 215.385L881.489 215.385L881.489 215.385L881.489 215.385C881.488 215.385 881.488 215.385 881.488 215.635L881.488 215.385C881.275 215.385 881.099 215.439 880.959 215.533C880.819 215.625 880.73 215.747 880.673 215.861C880.616 215.975 880.589 216.085 880.576 216.165C880.569 216.205 880.565 216.239 880.564 216.265C880.563 216.273 880.563 216.281 880.562 216.287L865.006 311.61L864.985 311.737L865.076 311.827L865.752 312.503Z" fill="#58AEA6" stroke="#58AEA6" stroke-width="0.5"/>
<path d="M839.564 307.992H839.591L839.619 307.986L840.276 307.837L840.444 307.799L840.468 307.629L853.322 218.376L853.324 218.358V218.34C853.324 218.127 853.27 217.951 853.177 217.81C853.084 217.671 852.962 217.582 852.848 217.525C852.734 217.468 852.624 217.441 852.544 217.428C852.504 217.421 852.47 217.418 852.445 217.416C852.432 217.415 852.422 217.414 852.414 217.414L852.404 217.414L852.4 217.414L852.399 217.414L852.398 217.414L852.398 217.414C852.398 217.414 852.398 217.414 852.398 217.664L852.398 217.414H852.398C852.185 217.414 852.009 217.468 851.868 217.561C851.729 217.654 851.639 217.776 851.582 217.89C851.526 218.003 851.499 218.113 851.485 218.193C851.479 218.234 851.475 218.268 851.473 218.293C851.473 218.303 851.472 218.312 851.472 218.319L838.62 307.558L838.615 307.592L838.62 307.626L838.868 307.593C838.62 307.626 838.62 307.626 838.62 307.627L838.62 307.628L838.62 307.63L838.621 307.635L838.623 307.644C838.624 307.65 838.626 307.656 838.627 307.663C838.631 307.676 838.636 307.69 838.642 307.704C838.655 307.731 838.672 307.758 838.694 307.783C838.738 307.832 838.797 307.87 838.866 307.899C839.001 307.954 839.213 307.992 839.564 307.992Z" fill="#58AEA6" stroke="#58AEA6" stroke-width="0.5"/>
<path d="M891.634 311.65C891.384 311.65 891.384 311.651 891.384 311.651L891.384 311.651L891.384 311.652L891.384 311.653L891.384 311.656L891.384 311.666C891.384 311.674 891.385 311.685 891.386 311.697C891.387 311.722 891.391 311.757 891.398 311.797C891.411 311.877 891.438 311.987 891.495 312.1C891.552 312.215 891.641 312.336 891.78 312.429C891.921 312.523 892.097 312.577 892.31 312.577V312.429C892.31 312.577 892.31 312.577 892.31 312.577H892.311H892.311L892.313 312.577L892.316 312.577L892.326 312.576C892.334 312.576 892.344 312.576 892.357 312.575C892.382 312.573 892.416 312.569 892.457 312.563C892.537 312.549 892.647 312.522 892.76 312.466C892.874 312.409 892.996 312.319 893.089 312.18C893.179 312.045 893.232 311.876 893.236 311.674L910.821 215.004L910.844 214.875L910.752 214.782L910.075 214.106L909.898 213.929L909.722 214.106L909.045 214.782L908.99 214.838L908.976 214.914L891.388 311.606L891.384 311.628L891.384 311.65L891.634 311.65Z" fill="#58AEA6" stroke="#58AEA6" stroke-width="0.5"/>
<path d="M770.545 393.466C774.281 393.466 777.31 390.439 777.31 386.705C777.31 382.97 774.281 379.943 770.545 379.943C766.809 379.943 763.78 382.97 763.78 386.705C763.78 390.439 766.809 393.466 770.545 393.466Z" fill="#00474D"/>
<path d="M904.489 393.466C908.225 393.466 911.253 390.439 911.253 386.705C911.253 382.97 908.225 379.943 904.489 379.943C900.752 379.943 897.724 382.97 897.724 386.705C897.724 390.439 900.752 393.466 904.489 393.466Z" fill="#00474D"/>
<path d="M899.751 359.658H888.251V364.391H899.751V359.658Z" fill="#58AEA6"/>
<path d="M888.252 365.067H902.459C903.811 365.067 905.164 365.744 905.164 367.772L907.87 386.705C907.87 388.733 906.517 390.085 904.488 390.762C903.135 390.762 901.782 390.085 901.105 389.409L885.546 368.448C884.87 367.772 884.87 366.42 885.546 365.744C886.899 365.067 887.576 365.067 888.252 365.067Z" fill="#00474D"/>
<path d="M765.807 359.658H754.307V364.391H765.807V359.658Z" fill="#58AEA6"/>
<path d="M753.629 365.067H767.836C769.189 365.067 770.542 365.744 770.542 367.772L773.248 386.705C773.248 388.733 771.895 390.085 769.865 390.762C768.512 390.762 767.159 390.085 766.483 389.409L750.923 368.448C750.247 367.772 750.247 366.42 750.923 365.744C752.953 365.067 753.629 365.067 753.629 365.067Z" fill="#00474D"/>
<path d="M953.872 175.742L979.579 167.628C981.608 166.952 983.637 168.304 984.314 170.332L984.99 171.685C985.667 173.713 984.314 175.742 982.284 176.418L956.578 184.532C954.549 185.208 952.519 183.856 951.843 181.827L951.166 180.475C950.49 178.446 951.843 176.418 953.872 175.742Z" fill="#58AEA6"/>
<path d="M742.132 222.852L738.715 222.852C736.686 222.852 734.691 224.425 734.691 226.454V231.187L738.073 229.835C740.103 229.159 741.456 227.13 742.132 225.102V222.852Z" fill="#00474D"/>
<path d="M734.769 283.924L734.769 287.988C734.769 290.016 735.929 291.429 737.98 291.706L742.689 292.505L741.456 289.337C740.779 287.309 739.333 285.922 737.304 284.569L734.769 283.924Z" fill="#00474D"/>
<path fill-rule="evenodd" clip-rule="evenodd" d="M-48.6904 294.071C-48.6904 295.329 -49.7089 296.347 -50.9647 296.347C-52.2205 296.347 -53.239 295.329 -53.239 294.071C-53.239 292.815 -52.2205 291.796 -50.9647 291.796C-49.7089 291.796 -48.6904 292.815 -48.6904 294.071ZM-48.6904 307.816C-48.6904 309.071 -49.7089 310.09 -50.9647 310.09C-52.2205 310.09 -53.239 309.071 -53.239 307.816C-53.239 306.557 -52.2205 305.539 -50.9647 305.539C-49.7089 305.539 -48.6904 306.557 -48.6904 307.816ZM-48.6904 321.558C-48.6904 322.814 -49.7089 323.832 -50.9647 323.832C-52.2205 323.832 -53.239 322.814 -53.239 321.558C-53.239 320.302 -52.2205 319.281 -50.9647 319.281C-49.7089 319.281 -48.6904 320.302 -48.6904 321.558ZM-48.6904 335.3C-48.6904 336.556 -49.7089 337.575 -50.9647 337.575C-52.2205 337.575 -53.239 336.556 -53.239 335.3C-53.239 334.045 -52.2205 333.026 -50.9647 333.026C-49.7089 333.026 -48.6904 334.045 -48.6904 335.3ZM-48.6904 349.043C-48.6904 350.301 -49.7089 351.319 -50.9647 351.319C-52.2205 351.319 -53.239 350.301 -53.239 349.043C-53.239 347.787 -52.2205 346.768 -50.9647 346.768C-49.7089 346.768 -48.6904 347.787 -48.6904 349.043ZM-48.6904 362.788C-48.6904 364.043 -49.7089 365.062 -50.9647 365.062C-52.2205 365.062 -53.239 364.043 -53.239 362.788C-53.239 361.529 -52.2205 360.511 -50.9647 360.511C-49.7089 360.511 -48.6904 361.529 -48.6904 362.788ZM-48.6904 376.53C-48.6904 377.786 -49.7089 378.804 -50.9647 378.804C-52.2205 378.804 -53.239 377.786 -53.239 376.53C-53.239 375.274 -52.2205 374.253 -50.9647 374.253C-49.7089 374.253 -48.6904 375.274 -48.6904 376.53ZM-50.9647 392.547C-49.7089 392.547 -48.6904 391.528 -48.6904 390.272C-48.6904 389.017 -49.7089 387.998 -50.9647 387.998C-52.2205 387.998 -53.239 389.017 -53.239 390.272C-53.239 391.528 -52.2205 392.547 -50.9647 392.547ZM-36.4035 392.547C-35.1476 392.547 -34.1291 391.528 -34.1291 390.272C-34.1291 389.017 -35.1476 387.998 -36.4035 387.998C-37.6593 387.998 -38.6778 389.017 -38.6778 390.272C-38.6778 391.528 -37.6593 392.547 -36.4035 392.547ZM-19.5674 390.272C-19.5674 391.528 -20.5859 392.547 -21.8442 392.547C-23.1 392.547 -24.1185 391.528 -24.1185 390.272C-24.1185 389.017 -23.1 387.998 -21.8442 387.998C-20.5859 387.998 -19.5674 389.017 -19.5674 390.272ZM-7.28303 392.547C-6.02473 392.547 -5.00623 391.528 -5.00623 390.272C-5.00623 389.017 -6.02473 387.998 -7.28303 387.998C-8.53886 387.998 -9.55736 389.017 -9.55736 390.272C-9.55736 391.528 -8.53886 392.547 -7.28303 392.547ZM9.555 390.272C9.555 391.528 8.5365 392.547 7.28067 392.547C6.02238 392.547 5.00387 391.528 5.00387 390.272C5.00387 389.017 6.02238 387.998 7.28067 387.998C8.5365 387.998 9.555 389.017 9.555 390.272ZM21.8419 392.547C23.0977 392.547 24.1162 391.528 24.1162 390.272C24.1162 389.017 23.0977 387.998 21.8419 387.998C20.586 387.998 19.5675 389.017 19.5675 390.272C19.5675 391.528 20.586 392.547 21.8419 392.547ZM38.6764 390.272C38.6764 391.528 37.6579 392.547 36.4021 392.547C35.1463 392.547 34.1278 391.528 34.1278 390.272C34.1278 389.017 35.1463 387.998 36.4021 387.998C37.6579 387.998 38.6764 389.017 38.6764 390.272ZM50.9623 392.547C52.2206 392.547 53.2391 391.528 53.2391 390.272C53.2391 389.017 52.2206 387.998 50.9623 387.998C49.7064 387.998 48.6879 389.017 48.6879 390.272C48.6879 391.528 49.7064 392.547 50.9623 392.547ZM-36.4035 378.804C-35.1476 378.804 -34.1291 377.786 -34.1291 376.53C-34.1291 375.274 -35.1476 374.253 -36.4035 374.253C-37.6593 374.253 -38.6778 375.274 -38.6778 376.53C-38.6778 377.786 -37.6593 378.804 -36.4035 378.804ZM-19.5674 376.53C-19.5674 377.786 -20.5859 378.804 -21.8442 378.804C-23.1 378.804 -24.1185 377.786 -24.1185 376.53C-24.1185 375.274 -23.1 374.253 -21.8442 374.253C-20.5859 374.253 -19.5674 375.274 -19.5674 376.53ZM-7.28303 378.804C-6.02473 378.804 -5.00623 377.786 -5.00623 376.53C-5.00623 375.274 -6.02473 374.253 -7.28303 374.253C-8.53886 374.253 -9.55736 375.274 -9.55736 376.53C-9.55736 377.786 -8.53886 378.804 -7.28303 378.804ZM9.555 376.53C9.555 377.786 8.5365 378.804 7.28067 378.804C6.02238 378.804 5.00387 377.786 5.00387 376.53C5.00387 375.274 6.02238 374.253 7.28067 374.253C8.5365 374.253 9.555 375.274 9.555 376.53ZM21.8419 378.804C23.0977 378.804 24.1162 377.786 24.1162 376.53C24.1162 375.274 23.0977 374.253 21.8419 374.253C20.586 374.253 19.5675 375.274 19.5675 376.53C19.5675 377.786 20.586 378.804 21.8419 378.804ZM38.6764 376.53C38.6764 377.786 37.6579 378.804 36.4021 378.804C35.1463 378.804 34.1278 377.786 34.1278 376.53C34.1278 375.274 35.1463 374.253 36.4021 374.253C37.6579 374.253 38.6764 375.274 38.6764 376.53ZM50.9623 378.804C52.2206 378.804 53.2391 377.786 53.2391 376.53C53.2391 375.274 52.2206 374.253 50.9623 374.253C49.7064 374.253 48.6879 375.274 48.6879 376.53C48.6879 377.786 49.7064 378.804 50.9623 378.804ZM-36.4035 365.062C-35.1476 365.062 -34.1291 364.043 -34.1291 362.788C-34.1291 361.529 -35.1476 360.511 -36.4035 360.511C-37.6593 360.511 -38.6778 361.529 -38.6778 362.788C-38.6778 364.043 -37.6593 365.062 -36.4035 365.062ZM-19.5674 362.788C-19.5674 364.043 -20.5859 365.062 -21.8442 365.062C-23.1 365.062 -24.1185 364.043 -24.1185 362.788C-24.1185 361.529 -23.1 360.511 -21.8442 360.511C-20.5859 360.511 -19.5674 361.529 -19.5674 362.788ZM-7.28303 365.062C-6.02473 365.062 -5.00623 364.043 -5.00623 362.788C-5.00623 361.529 -6.02473 360.511 -7.28303 360.511C-8.53886 360.511 -9.55736 361.529 -9.55736 362.788C-9.55736 364.043 -8.53886 365.062 -7.28303 365.062ZM9.555 362.788C9.555 364.043 8.5365 365.062 7.28067 365.062C6.02238 365.062 5.00387 364.043 5.00387 362.788C5.00387 361.529 6.02238 360.511 7.28067 360.511C8.5365 360.511 9.555 361.529 9.555 362.788ZM21.8419 365.062C23.0977 365.062 24.1162 364.043 24.1162 362.788C24.1162 361.529 23.0977 360.511 21.8419 360.511C20.586 360.511 19.5675 361.529 19.5675 362.788C19.5675 364.043 20.586 365.062 21.8419 365.062ZM38.6764 362.788C38.6764 364.043 37.6579 365.062 36.4021 365.062C35.1463 365.062 34.1278 364.043 34.1278 362.788C34.1278 361.529 35.1463 360.511 36.4021 360.511C37.6579 360.511 38.6764 361.529 38.6764 362.788ZM50.9623 365.062C52.2206 365.062 53.2391 364.043 53.2391 362.788C53.2391 361.529 52.2206 360.511 50.9623 360.511C49.7064 360.511 48.6879 361.529 48.6879 362.788C48.6879 364.043 49.7064 365.062 50.9623 365.062ZM-36.4035 351.319C-35.1476 351.319 -34.1291 350.301 -34.1291 349.043C-34.1291 347.787 -35.1476 346.768 -36.4035 346.768C-37.6593 346.768 -38.6778 347.787 -38.6778 349.043C-38.6778 350.301 -37.6593 351.319 -36.4035 351.319ZM-19.5674 349.043C-19.5674 350.301 -20.5859 351.319 -21.8442 351.319C-23.1 351.319 -24.1185 350.301 -24.1185 349.043C-24.1185 347.787 -23.1 346.768 -21.8442 346.768C-20.5859 346.768 -19.5674 347.787 -19.5674 349.043ZM-7.28303 351.319C-6.02473 351.319 -5.00623 350.301 -5.00623 349.043C-5.00623 347.787 -6.02473 346.768 -7.28303 346.768C-8.53886 346.768 -9.55736 347.787 -9.55736 349.043C-9.55736 350.301 -8.53886 351.319 -7.28303 351.319ZM9.555 349.043C9.555 350.301 8.5365 351.319 7.28067 351.319C6.02238 351.319 5.00387 350.301 5.00387 349.043C5.00387 347.787 6.02238 346.768 7.28067 346.768C8.5365 346.768 9.555 347.787 9.555 349.043ZM21.8419 351.319C23.0977 351.319 24.1162 350.301 24.1162 349.043C24.1162 347.787 23.0977 346.768 21.8419 346.768C20.586 346.768 19.5675 347.787 19.5675 349.043C19.5675 350.301 20.586 351.319 21.8419 351.319ZM38.6764 349.043C38.6764 350.301 37.6579 351.319 36.4021 351.319C35.1463 351.319 34.1278 350.301 34.1278 349.043C34.1278 347.787 35.1463 346.768 36.4021 346.768C37.6579 346.768 38.6764 347.787 38.6764 349.043ZM50.9623 351.319C52.2206 351.319 53.2391 350.301 53.2391 349.043C53.2391 347.787 52.2206 346.768 50.9623 346.768C49.7064 346.768 48.6879 347.787 48.6879 349.043C48.6879 350.301 49.7064 351.319 50.9623 351.319ZM-36.4035 337.575C-35.1476 337.575 -34.1291 336.556 -34.1291 335.3C-34.1291 334.045 -35.1476 333.026 -36.4035 333.026C-37.6593 333.026 -38.6778 334.045 -38.6778 335.3C-38.6778 336.556 -37.6593 337.575 -36.4035 337.575ZM-19.5674 335.3C-19.5674 336.556 -20.5859 337.575 -21.8442 337.575C-23.1 337.575 -24.1185 336.556 -24.1185 335.3C-24.1185 334.045 -23.1 333.026 -21.8442 333.026C-20.5859 333.026 -19.5674 334.045 -19.5674 335.3ZM-7.28303 337.575C-6.02473 337.575 -5.00623 336.556 -5.00623 335.3C-5.00623 334.045 -6.02473 333.026 -7.28303 333.026C-8.53886 333.026 -9.55736 334.045 -9.55736 335.3C-9.55736 336.556 -8.53886 337.575 -7.28303 337.575ZM9.555 335.3C9.555 336.556 8.5365 337.575 7.28067 337.575C6.02238 337.575 5.00387 336.556 5.00387 335.3C5.00387 334.045 6.02238 333.026 7.28067 333.026C8.5365 333.026 9.555 334.045 9.555 335.3ZM21.8419 337.575C23.0977 337.575 24.1162 336.556 24.1162 335.3C24.1162 334.045 23.0977 333.026 21.8419 333.026C20.586 333.026 19.5675 334.045 19.5675 335.3C19.5675 336.556 20.586 337.575 21.8419 337.575ZM38.6764 335.3C38.6764 336.556 37.6579 337.575 36.4021 337.575C35.1463 337.575 34.1278 336.556 34.1278 335.3C34.1278 334.045 35.1463 333.026 36.4021 333.026C37.6579 333.026 38.6764 334.045 38.6764 335.3ZM50.9623 337.575C52.2206 337.575 53.2391 336.556 53.2391 335.3C53.2391 334.045 52.2206 333.026 50.9623 333.026C49.7064 333.026 48.6879 334.045 48.6879 335.3C48.6879 336.556 49.7064 337.575 50.9623 337.575ZM-36.4035 323.832C-35.1476 323.832 -34.1291 322.814 -34.1291 321.558C-34.1291 320.302 -35.1476 319.281 -36.4035 319.281C-37.6593 319.281 -38.6778 320.302 -38.6778 321.558C-38.6778 322.814 -37.6593 323.832 -36.4035 323.832ZM-19.5674 321.558C-19.5674 322.814 -20.5859 323.832 -21.8442 323.832C-23.1 323.832 -24.1185 322.814 -24.1185 321.558C-24.1185 320.302 -23.1 319.281 -21.8442 319.281C-20.5859 319.281 -19.5674 320.302 -19.5674 321.558ZM-7.28303 323.832C-6.02473 323.832 -5.00623 322.814 -5.00623 321.558C-5.00623 320.302 -6.02473 319.281 -7.28303 319.281C-8.53886 319.281 -9.55736 320.302 -9.55736 321.558C-9.55736 322.814 -8.53886 323.832 -7.28303 323.832ZM9.555 321.558C9.555 322.814 8.5365 323.832 7.28067 323.832C6.02238 323.832 5.00387 322.814 5.00387 321.558C5.00387 320.302 6.02238 319.281 7.28067 319.281C8.5365 319.281 9.555 320.302 9.555 321.558ZM21.8419 323.832C23.0977 323.832 24.1162 322.814 24.1162 321.558C24.1162 320.302 23.0977 319.281 21.8419 319.281C20.586 319.281 19.5675 320.302 19.5675 321.558C19.5675 322.814 20.586 323.832 21.8419 323.832ZM38.6764 321.558C38.6764 322.814 37.6579 323.832 36.4021 323.832C35.1463 323.832 34.1278 322.814 34.1278 321.558C34.1278 320.302 35.1463 319.281 36.4021 319.281C37.6579 319.281 38.6764 320.302 38.6764 321.558ZM50.9623 323.832C52.2206 323.832 53.2391 322.814 53.2391 321.558C53.2391 320.302 52.2206 319.281 50.9623 319.281C49.7064 319.281 48.6879 320.302 48.6879 321.558C48.6879 322.814 49.7064 323.832 50.9623 323.832ZM-36.4035 310.09C-35.1476 310.09 -34.1291 309.071 -34.1291 307.816C-34.1291 306.557 -35.1476 305.539 -36.4035 305.539C-37.6593 305.539 -38.6778 306.557 -38.6778 307.816C-38.6778 309.071 -37.6593 310.09 -36.4035 310.09ZM-19.5674 307.816C-19.5674 309.071 -20.5859 310.09 -21.8442 310.09C-23.1 310.09 -24.1185 309.071 -24.1185 307.816C-24.1185 306.557 -23.1 305.539 -21.8442 305.539C-20.5859 305.539 -19.5674 306.557 -19.5674 307.816ZM-7.28303 310.09C-6.02473 310.09 -5.00623 309.071 -5.00623 307.816C-5.00623 306.557 -6.02473 305.539 -7.28303 305.539C-8.53886 305.539 -9.55736 306.557 -9.55736 307.816C-9.55736 309.071 -8.53886 310.09 -7.28303 310.09ZM9.555 307.816C9.555 309.071 8.5365 310.09 7.28067 310.09C6.02238 310.09 5.00387 309.071 5.00387 307.816C5.00387 306.557 6.02238 305.539 7.28067 305.539C8.5365 305.539 9.555 306.557 9.555 307.816ZM21.8419 310.09C23.0977 310.09 24.1162 309.071 24.1162 307.816C24.1162 306.557 23.0977 305.539 21.8419 305.539C20.586 305.539 19.5675 306.557 19.5675 307.816C19.5675 309.071 20.586 310.09 21.8419 310.09ZM38.6764 307.816C38.6764 309.071 37.6579 310.09 36.4021 310.09C35.1463 310.09 34.1278 309.071 34.1278 307.816C34.1278 306.557 35.1463 305.539 36.4021 305.539C37.6579 305.539 38.6764 306.557 38.6764 307.816ZM50.9623 310.09C52.2206 310.09 53.2391 309.071 53.2391 307.816C53.2391 306.557 52.2206 305.539 50.9623 305.539C49.7064 305.539 48.6879 306.557 48.6879 307.816C48.6879 309.071 49.7064 310.09 50.9623 310.09ZM-36.4035 296.347C-35.1476 296.347 -34.1291 295.329 -34.1291 294.071C-34.1291 292.815 -35.1476 291.796 -36.4035 291.796C-37.6593 291.796 -38.6778 292.815 -38.6778 294.071C-38.6778 295.329 -37.6593 296.347 -36.4035 296.347ZM-19.5674 294.071C-19.5674 295.329 -20.5859 296.347 -21.8442 296.347C-23.1 296.347 -24.1185 295.329 -24.1185 294.071C-24.1185 292.815 -23.1 291.796 -21.8442 291.796C-20.5859 291.796 -19.5674 292.815 -19.5674 294.071ZM-7.28303 296.347C-6.02473 296.347 -5.00623 295.329 -5.00623 294.071C-5.00623 292.815 -6.02473 291.796 -7.28303 291.796C-8.53886 291.796 -9.55736 292.815 -9.55736 294.071C-9.55736 295.329 -8.53886 296.347 -7.28303 296.347ZM9.555 294.071C9.555 295.329 8.5365 296.347 7.28067 296.347C6.02238 296.347 5.00387 295.329 5.00387 294.071C5.00387 292.815 6.02238 291.796 7.28067 291.796C8.5365 291.796 9.555 292.815 9.555 294.071ZM21.8419 296.347C23.0977 296.347 24.1162 295.329 24.1162 294.071C24.1162 292.815 23.0977 291.796 21.8419 291.796C20.586 291.796 19.5675 292.815 19.5675 294.071C19.5675 295.329 20.586 296.347 21.8419 296.347ZM38.6764 294.071C38.6764 295.329 37.6579 296.347 36.4021 296.347C35.1463 296.347 34.1278 295.329 34.1278 294.071C34.1278 292.815 35.1463 291.796 36.4021 291.796C37.6579 291.796 38.6764 292.815 38.6764 294.071ZM50.9623 296.347C52.2206 296.347 53.2391 295.329 53.2391 294.071C53.2391 292.815 52.2206 291.796 50.9623 291.796C49.7064 291.796 48.6879 292.815 48.6879 294.071C48.6879 295.329 49.7064 296.347 50.9623 296.347Z" fill="#51ADA6"/>
</svg>
