<?xml version="1.0" encoding="utf-8"?>
<!-- Generator: Adobe Illustrator 24.1.0, SVG Export Plug-In . SVG Version: 6.00 Build 0)  -->
<svg version="1.1" id="Layer_1" xmlns="http://www.w3.org/2000/svg" xmlns:xlink="http://www.w3.org/1999/xlink" x="0px" y="0px"
	 viewBox="0 0 1200 180" style="enable-background:new 0 0 1200 180;" xml:space="preserve">
<style type="text/css">
	.st0{fill:#00D1C6;}
	.st1{fill:#FFFFFF;}
	.st2{fill:#00B0A7;}
	.st3{fill:#151720;}
</style>
<g>
	<g>
		<g>
			<path class="st2" d="M340.62,136.27V4.6h15.8v58.12h68.28V4.6h15.8v131.67h-15.8V75.7h-68.28v60.57H340.62z"/>
			<path class="st2" d="M472.91,177.66l23.14-50.41h-5.45l-37.06-84.27h17.12l30.85,72.61l32.73-72.61h16.37l-61.13,134.68H472.91z"
				/>
			<path class="st2" d="M563.33,177.66V42.97h14.3l1.5,15.43c3.01-4.51,7.3-8.59,12.89-12.23c5.58-3.63,12.7-5.45,21.35-5.45
				c9.28,0,17.37,2.13,24.27,6.39c6.89,4.27,12.26,10.1,16.08,17.49c3.82,7.4,5.74,15.8,5.74,25.21s-1.91,17.78-5.74,25.11
				c-3.83,7.34-9.22,13.1-16.18,17.31c-6.96,4.2-15.08,6.3-24.36,6.3c-7.65,0-14.46-1.57-20.41-4.7
				c-5.96-3.13-10.51-7.52-13.64-13.17v57H563.33z M611.49,124.8c6.27,0,11.79-1.47,16.55-4.42c4.76-2.95,8.53-7.06,11.28-12.32
				c2.76-5.26,4.14-11.41,4.14-18.43c0-7.02-1.38-13.17-4.14-18.44c-2.76-5.27-6.52-9.37-11.28-12.32
				c-4.77-2.95-10.29-4.42-16.55-4.42c-6.27,0-11.79,1.48-16.55,4.42s-8.53,7.05-11.29,12.32c-2.76,5.27-4.14,11.41-4.14,18.44
				c0,7.02,1.38,13.17,4.14,18.43c2.76,5.27,6.52,9.38,11.29,12.32S605.22,124.8,611.49,124.8z"/>
			<path class="st2" d="M718.8,138.53c-8.91,0-16.81-2.04-23.7-6.11c-6.9-4.07-12.32-9.75-16.27-17.03
				c-3.95-7.27-5.92-15.86-5.92-25.77c0-9.78,1.94-18.34,5.83-25.68c3.88-7.34,9.31-13.04,16.27-17.12s15.02-6.11,24.17-6.11
				c9.03,0,16.83,2.04,23.42,6.11s11.63,9.44,15.14,16.08c3.51,6.65,5.27,13.8,5.27,21.45c0,1.38-0.03,2.76-0.09,4.14
				c-0.06,1.38-0.1,2.95-0.1,4.7h-74.3c0.38,7.15,2.03,13.07,4.98,17.78c2.95,4.7,6.64,8.25,11.1,10.63
				c4.45,2.38,9.19,3.57,14.2,3.57c6.52,0,11.98-1.5,16.37-4.51c4.39-3.01,7.59-7.08,9.59-12.23h15.61
				c-2.51,8.65-7.3,15.83-14.39,21.54C738.9,135.68,729.84,138.53,718.8,138.53z M718.8,54.07c-7.52,0-14.2,2.29-20.03,6.87
				c-5.83,4.58-9.19,11.26-10.06,20.03h58.69c-0.38-8.4-3.26-14.99-8.65-19.75C733.35,56.46,726.7,54.07,718.8,54.07z"/>
			<path class="st2" d="M780.27,136.27v-93.3h14.3l1.32,17.87c2.88-6.14,7.27-11.03,13.17-14.67c5.89-3.63,13.17-5.45,21.82-5.45
				v16.55h-4.33c-5.52,0-10.6,0.97-15.24,2.92c-4.64,1.94-8.34,5.24-11.1,9.87c-2.76,4.64-4.14,11.04-4.14,19.19v47.03H780.27z"/>
			<path class="st3" d="M904.63,138.53c-12.92,0-24.05-2.85-33.39-8.56c-9.35-5.71-16.59-13.67-21.73-23.89
				c-5.15-10.22-7.71-22.1-7.71-35.65c0-13.42,2.57-25.24,7.71-35.46c5.14-10.22,12.38-18.21,21.73-23.98
				c9.34-5.77,20.47-8.65,33.39-8.65c15.05,0,27.31,3.61,36.77,10.82c9.47,7.22,15.52,17.28,18.15,30.19h-17.49
				c-2.01-8.15-6.11-14.7-12.32-19.66c-6.21-4.95-14.58-7.43-25.11-7.43c-9.41,0-17.62,2.16-24.64,6.49s-12.45,10.53-16.27,18.62
				c-3.83,8.09-5.74,17.78-5.74,29.06s1.91,20.97,5.74,29.06c3.82,8.09,9.25,14.3,16.27,18.62s15.24,6.49,24.64,6.49
				c10.53,0,18.9-2.41,25.11-7.24c6.21-4.83,10.31-11.26,12.32-19.28h17.49c-2.63,12.67-8.69,22.57-18.15,29.72
				C931.93,134.96,919.68,138.53,904.63,138.53z"/>
			<path class="st3" d="M1007.05,138.53c-7.78,0-14.24-1.32-19.38-3.95c-5.14-2.63-8.97-6.14-11.48-10.53
				c-2.51-4.39-3.76-9.15-3.76-14.3c0-9.53,3.63-16.86,10.91-22.01c7.27-5.14,17.18-7.71,29.72-7.71h25.2V78.9
				c0-8.15-2.13-14.33-6.4-18.53c-4.26-4.2-9.97-6.3-17.12-6.3c-6.15,0-11.45,1.54-15.9,4.61c-4.45,3.07-7.24,7.56-8.37,13.45
				h-16.17c0.62-6.77,2.91-12.48,6.86-17.12c3.95-4.64,8.87-8.18,14.77-10.63c5.89-2.45,12.16-3.67,18.81-3.67
				c13.04,0,22.85,3.48,29.44,10.44c6.58,6.96,9.87,16.21,9.87,27.75v57.37h-14.11l-0.94-16.74c-2.63,5.27-6.49,9.75-11.57,13.45
				C1022.38,136.68,1015.57,138.53,1007.05,138.53z M1009.49,125.18c6.02,0,11.19-1.57,15.52-4.7c4.33-3.13,7.62-7.21,9.87-12.23
				c2.26-5.01,3.39-10.28,3.39-15.8v-0.19h-23.89c-9.28,0-15.83,1.6-19.66,4.8c-3.83,3.2-5.74,7.18-5.74,11.94
				c0,4.89,1.79,8.81,5.36,11.76C997.93,123.7,1002.97,125.18,1009.49,125.18z"/>
			<path class="st3" d="M1074.76,136.27v-93.3h14.3l1.32,17.87c2.88-6.14,7.27-11.03,13.17-14.67c5.89-3.63,13.16-5.45,21.82-5.45
				v16.55h-4.33c-5.52,0-10.6,0.97-15.24,2.92c-4.64,1.94-8.34,5.24-11.1,9.87c-2.76,4.64-4.14,11.04-4.14,19.19v47.03H1074.76z"/>
			<path class="st3" d="M1179.14,136.27c-8.53,0-15.24-2.07-20.13-6.21c-4.89-4.14-7.34-11.6-7.34-22.39V56.33h-16.18V42.97h16.18
				l2.07-22.38h13.73v22.38h27.46v13.36h-27.46v51.35c0,5.9,1.19,9.88,3.57,11.95c2.38,2.07,6.58,3.1,12.6,3.1h9.78v13.54H1179.14z"
				/>
		</g>
	</g>
	<g>
		<circle class="st0" cx="154.71" cy="159.31" r="18.34"/>
		<circle class="st0" cx="51.62" cy="159.31" r="18.34"/>
		<path class="st0" d="M268.46,9.67c0.92-1.75-0.56-3.76-2.69-3.65L6.64,19.52c-3.34,0.17-3.59,4.57-0.3,5.07l192.37,31.34
			c3.27,0.49,3.06,4.84-0.25,5.06l-163,11.52c-3.47,0.23-3.65,4.81-0.21,5.26l142.89,20.26c3.26,0.44,3.16,4.76-0.12,5.06
			L72.05,113.39c-3.46,0.32-3.49,4.91-0.03,5.27l126.54,11.82c3.63,0.38,7.12-1.38,8.69-4.38L268.46,9.67z"/>
	</g>
</g>
</svg>
