<?xml version="1.0" standalone="no"?>
<!DOCTYPE svg PUBLIC "-//W3C//DTD SVG 20010904//EN"
 "http://www.w3.org/TR/2001/REC-SVG-20010904/DTD/svg10.dtd">
<svg version="1.0" xmlns="http://www.w3.org/2000/svg"
 width="204.000000pt" height="246.000000pt" viewBox="0 0 204.000000 246.000000"
 preserveAspectRatio="xMidYMid meet">

<g transform="translate(0.000000,246.000000) scale(0.100000,-0.100000)"
fill="#000000" stroke="none">
<path d="M877 2450 c-110 -14 -287 -74 -287 -98 0 -7 38 -41 103 -91 15 -12
28 -11 95 5 106 26 344 26 455 1 88 -21 86 -22 166 50 l44 39 -58 28 c-122 57
-352 87 -518 66z"/>
<path d="M406 2234 c-358 -291 -431 -852 -163 -1249 121 -179 295 -308 504
-372 81 -25 102 -27 258 -27 147 -1 181 2 254 22 278 76 484 248 606 504 136
286 120 618 -41 890 -48 81 -194 242 -241 267 -20 10 -25 8 -48 -30 -39 -61
-39 -63 8 -97 25 -17 59 -54 76 -81 20 -30 42 -51 57 -55 38 -10 107 -85 138
-150 98 -207 60 -559 -73 -679 -36 -33 -58 -42 -143 -61 -39 -9 -149 -115
-233 -226 -95 -125 -147 -173 -220 -206 -118 -54 -290 -29 -375 56 -20 20 -69
85 -109 143 -78 114 -185 223 -229 233 -83 19 -105 28 -136 54 -135 119 -177
468 -82 676 39 85 72 121 141 154 44 21 65 37 69 53 3 13 29 45 57 72 l51 48
-17 38 c-10 21 -26 45 -35 54 -16 14 -22 12 -74 -31z"/>
<path d="M1017 2166 c-4 -10 -7 -174 -7 -364 0 -191 -5 -410 -11 -487 -15
-191 -17 -535 -3 -558 9 -16 15 -15 80 17 86 44 126 77 259 222 l107 116 -35
34 c-41 41 -81 120 -105 206 -24 89 -23 326 2 423 24 93 75 202 115 247 l32
37 -23 15 c-84 55 -205 93 -324 102 -71 6 -82 5 -87 -10z"/>
<path d="M453 1831 c-134 -82 -152 -415 -28 -538 23 -24 47 -43 54 -43 8 0 11
83 11 300 0 165 -1 300 -2 300 -2 0 -17 -9 -35 -19z"/>
<path d="M1540 1648 c0 -112 3 -247 7 -300 l6 -97 29 15 c71 37 112 156 106
308 -3 91 -7 109 -36 168 -22 45 -44 74 -66 87 -18 12 -36 21 -40 21 -3 0 -6
-91 -6 -202z"/>
<path d="M690 415 c0 -33 -4 -45 -15 -45 -11 0 -15 -12 -15 -45 0 -33 4 -45
15 -45 12 0 15 -15 15 -75 l0 -75 60 0 60 0 0 75 c0 68 2 75 20 75 17 0 20 7
20 45 0 38 -3 45 -20 45 -17 0 -20 7 -20 45 l0 45 -60 0 -60 0 0 -45z"/>
<path d="M59 352 c-56 -50 -51 -165 9 -212 32 -26 73 -25 106 1 21 17 26 18
26 5 0 -13 12 -16 60 -16 l61 0 -3 122 -3 123 -57 3 c-48 2 -58 0 -58 -13 0
-15 -2 -15 -22 -1 -35 25 -83 20 -119 -12z m125 -68 c20 -8 21 -47 2 -63 -29
-24 -64 17 -44 53 10 17 18 19 42 10z"/>
<path d="M350 255 l0 -125 60 0 60 0 0 69 c0 45 5 72 13 80 24 19 37 -9 37
-81 l0 -68 61 0 61 0 -4 100 c-3 88 -6 102 -28 125 -30 32 -88 35 -115 5 -10
-11 -21 -20 -26 -20 -4 0 -5 9 -2 20 5 18 0 20 -56 20 l-61 0 0 -125z"/>
<path d="M944 370 c-39 -16 -64 -59 -64 -112 0 -92 53 -146 133 -135 150 20
136 259 -15 256 -18 0 -43 -4 -54 -9z m109 -62 c24 -28 22 -93 -3 -118 -25
-25 -81 -26 -103 -2 -39 43 -27 114 23 139 30 15 59 8 83 -19z"/>
<path d="M1150 255 l0 -125 25 0 c23 0 24 2 27 81 l3 80 63 -85 c35 -47 70
-86 77 -86 11 0 15 28 17 125 3 123 3 125 -19 125 -21 0 -22 -5 -25 -81 l-3
-81 -65 86 c-92 122 -100 119 -100 -39z"/>
<path d="M1638 255 c3 -115 5 -125 22 -125 17 0 20 9 22 82 l3 82 65 -87 c91
-124 100 -120 100 38 l0 125 -25 0 c-25 0 -25 -1 -25 -82 l0 -81 -65 86 c-93
123 -101 119 -97 -38z"/>
<path d="M1410 250 l0 -120 55 0 c48 0 55 2 55 20 0 16 -7 20 -35 20 l-35 0 0
100 c0 93 -1 100 -20 100 -19 0 -20 -7 -20 -120z"/>
<path d="M1550 250 c0 -113 1 -120 20 -120 19 0 20 7 20 120 0 113 -1 120 -20
120 -19 0 -20 -7 -20 -120z"/>
<path d="M1890 250 l0 -120 65 0 c58 0 65 2 65 20 0 17 -7 20 -40 20 -39 0
-40 1 -40 35 0 34 1 35 41 35 33 0 40 3 37 18 -2 12 -14 18 -41 20 -31 3 -37
7 -37 27 0 20 6 24 37 27 27 2 39 8 41 21 3 15 -5 17 -62 17 l-66 0 0 -120z"/>
</g>
</svg>
