<svg xmlns="http://www.w3.org/2000/svg"  viewBox="0 0 100 100" width="100px" height="100px"><path fill="#7783ad" d="M86.216,64.534c-0.139-5.683-2.495-19.406-2.495-19.406c-2.049-3.022-6.704-5.286-12.658-6.794H32.535c-0.264,0-0.331-0.301-0.206-0.459c-6.888,1.489-12.356,3.906-14.626,7.253c0,0-2.356,13.723-2.495,19.406c-0.131,5.373-3.096,19.42,10.046,16.836c1.476-0.29,2.741-1.235,3.434-2.57c2.601-5.009,9.617-17.95,12.856-18.285c3.099-0.321,15.235-0.321,18.335,0c3.119,0.323,9.736,12.325,12.546,17.69c0.926,1.767,2.625,3.019,4.598,3.313C89.182,83.334,86.344,69.788,86.216,64.534z"/><path fill="#8f9eb6" d="M44.363 56.652c1.12-2.104 1.756-4.504 1.756-7.053 0-8.306-6.733-15.04-15.04-15.04s-15.04 6.733-15.04 15.04c0 8.005 6.254 14.546 14.143 15.011.042 5.093 4.18 9.21 9.283 9.21 5.129 0 9.287-4.158 9.287-9.287C48.753 61.203 46.995 58.291 44.363 56.652zM85.346 49.599c0-8.306-6.733-15.04-15.04-15.04-8.306 0-15.04 6.733-15.04 15.04 0 2.549.637 4.95 1.756 7.053-2.632 1.639-4.39 4.551-4.39 7.881 0 5.129 4.158 9.287 9.287 9.287 5.103 0 9.242-4.117 9.283-9.21C79.092 64.145 85.346 57.604 85.346 49.599z"/><path fill="#6474a6" d="M40.492 61.538A3.938 3.938 0 1 0 40.492 69.414 3.938 3.938 0 1 0 40.492 61.538zM62.072 61.538A3.938 3.938 0 1 0 62.072 69.414 3.938 3.938 0 1 0 62.072 61.538zM36.759 47.243h-3.9v-3.9c0-.652-.534-1.186-1.186-1.186h-1.957c-.652 0-1.186.534-1.186 1.186v3.9h-3.9c-.652 0-1.186.534-1.186 1.186v1.957c0 .652.534 1.186 1.186 1.186h3.9v3.9c0 .652.534 1.186 1.186 1.186h1.957c.652 0 1.186-.534 1.186-1.186v-3.9h3.9c.652 0 1.186-.534 1.186-1.186v-1.957C37.944 47.776 37.411 47.243 36.759 47.243z"/><path fill="#60be92" d="M70.425 40.657000000000004A2.781 2.781 0 1 0 70.425 46.219A2.781 2.781 0 1 0 70.425 40.657000000000004Z"/><path fill="#39c2d8" d="M70.425 52.595A2.781 2.781 0 1 0 70.425 58.157A2.781 2.781 0 1 0 70.425 52.595Z"/><path fill="#f26e7c" d="M76.394 46.626A2.781 2.781 0 1 0 76.394 52.187999999999995A2.781 2.781 0 1 0 76.394 46.626Z"/><path fill="#ef5390" d="M64.456 46.626A2.781 2.781 0 1 0 64.456 52.187999999999995A2.781 2.781 0 1 0 64.456 46.626Z"/><path fill="#fff" d="M52.32,35.534h-3.581c-0.722,0-1.313,0.956-1.313,2.125h6.208C53.633,36.49,53.042,35.534,52.32,35.534z"/><path fill="none" d="M50.479,35.318c-4.681-8.436,3.478-12.171,7.123-11.19c5.444,1.464,4.547,5.994,8.67,6.163c2.685,0.11,5.992-1.791,6.806-4.922c0.808-3.11-1.028-6.732-4.562-8.251"/><path fill="#1f212b" d="M87.596,66.533c-0.068-0.898-0.13-1.708-0.147-2.381c-0.068-2.774-0.642-7.351-1.225-11.383c0.226-1.071,0.356-2.175,0.356-3.31c0-8.844-7.195-16.04-16.04-16.04c-3.804,0-7.298,1.337-10.05,3.558h-6.34c-0.157-1.154-0.848-2-1.702-2h-1.284c-0.006-0.014-0.006-0.029-0.013-0.042c-2.19-3.947-1.311-6.488-0.187-7.925c1.681-2.152,4.843-3.051,6.743-2.539c2.612,0.703,3.633,2.109,4.621,3.468c0.978,1.347,1.901,2.619,4.159,2.711c2.842,0.13,6.422-1.875,7.31-5.295c0.9-3.463-1.185-7.262-4.849-8.837c-0.251-0.107-0.547,0.008-0.657,0.262c-0.109,0.253,0.008,0.547,0.262,0.657c3.214,1.381,5.052,4.677,4.275,7.666c-0.764,2.938-3.886,4.654-6.301,4.548c-1.773-0.073-2.452-1.007-3.391-2.299c-0.988-1.36-2.216-3.052-5.17-3.847c-2.199-0.589-5.803,0.346-7.791,2.889c-1.265,1.618-2.273,4.407-0.128,8.583h-0.969c-0.854,0-1.545,0.846-1.702,2h-6.012c-2.753-2.221-6.247-3.558-10.05-3.558c-8.844,0-16.04,7.195-16.04,16.04c0,1.171,0.14,2.309,0.38,3.411c-0.578,4.008-1.144,8.531-1.211,11.283c-0.017,0.672-0.079,1.482-0.147,2.38c-0.327,4.293-0.821,10.78,2.763,13.958c1.967,1.743,4.881,2.248,8.661,1.496c1.765-0.35,3.254-1.472,4.088-3.078c1.258-2.423,2.429-4.559,3.522-6.462c1.756,1.395,3.969,2.235,6.371,2.235c5.672,0,10.287-4.615,10.287-10.287c0-1.206-0.21-2.375-0.602-3.47c1.025-0.006,2.058-0.006,3.083,0c-0.392,1.095-0.602,2.265-0.602,3.47c0,5.672,4.615,10.287,10.287,10.287c2.413,0,4.635-0.849,6.395-2.255c1.006,1.751,2.079,3.699,3.226,5.887c1.083,2.069,3.088,3.505,5.364,3.842c0.773,0.114,1.506,0.171,2.2,0.171c2.344,0,4.228-0.651,5.618-1.947C88.405,77.164,87.918,70.766,87.596,66.533z M49.077,35.976h3.371c0.241,0,0.57,0.377,0.689,1h-4.75C48.507,36.353,48.836,35.976,49.077,35.976z M28.032,77.986c-0.552,1.064-1.537,1.807-2.702,2.038c-3.135,0.622-5.472,0.276-6.945-1.031c-2.841-2.519-2.393-8.411-2.096-12.309c0.071-0.937,0.135-1.782,0.152-2.483c0.044-1.819,0.324-4.504,0.681-7.294c2.406,4.571,6.948,7.865,12.342,8.484c0.206,2.123,1.073,4.055,2.378,5.606C30.651,73.063,29.384,75.381,28.032,77.986z M39.7,72.68c-4.53,0-8.246-3.687-8.283-8.219c-0.004-0.526-0.416-0.959-0.941-0.99c-7.403-0.436-13.202-6.591-13.202-14.013c0-7.741,6.298-14.04,14.04-14.04s14.04,6.298,14.04,14.04c0,2.292-0.567,4.568-1.639,6.583c-0.247,0.464-0.092,1.041,0.354,1.318c2.454,1.529,3.919,4.157,3.919,7.032C47.987,68.962,44.269,72.68,39.7,72.68z M50.946,58.913c-0.86,0-1.707,0.006-2.539,0.015c-0.661-1.048-1.508-1.984-2.529-2.75c0.967-2.097,1.475-4.401,1.475-6.719c0-4.008-1.488-7.667-3.926-10.482h15.001c-2.439,2.814-3.926,6.474-3.926,10.482c0,2.318,0.508,4.623,1.475,6.719c-1.021,0.766-1.868,1.702-2.529,2.749C52.626,58.919,51.792,58.913,50.946,58.913z M62.153,72.68c-4.569,0-8.287-3.718-8.287-8.287c0-2.875,1.465-5.503,3.919-7.032c0.446-0.278,0.601-0.854,0.354-1.318c-1.072-2.016-1.639-4.292-1.639-6.583c0-7.741,6.298-14.04,14.04-14.04s14.04,6.298,14.04,14.04c0,7.422-5.799,13.577-13.201,14.013c-0.525,0.031-0.937,0.463-0.941,0.99C70.4,68.992,66.684,72.68,62.153,72.68z M83.592,78.914c-1.335,1.244-3.409,1.669-6.162,1.26c-1.645-0.243-3.097-1.287-3.885-2.791c-1.291-2.464-2.453-4.574-3.513-6.414c1.293-1.546,2.151-3.468,2.357-5.58c5.415-0.622,9.973-3.939,12.372-8.539c0.36,2.81,0.644,5.518,0.689,7.35c0.017,0.701,0.081,1.547,0.152,2.484C85.895,70.536,86.338,76.356,83.592,78.914z"/><path fill="#1f212b" d="M40.492 60.976c-2.481 0-4.5 2.019-4.5 4.5s2.019 4.5 4.5 4.5 4.5-2.019 4.5-4.5S42.974 60.976 40.492 60.976zM40.492 68.976c-1.93 0-3.5-1.57-3.5-3.5s1.57-3.5 3.5-3.5 3.5 1.57 3.5 3.5S42.422 68.976 40.492 68.976zM62.492 60.976c-2.481 0-4.5 2.019-4.5 4.5s2.019 4.5 4.5 4.5 4.5-2.019 4.5-4.5S64.974 60.976 62.492 60.976zM62.492 68.976c-1.93 0-3.5-1.57-3.5-3.5s1.57-3.5 3.5-3.5 3.5 1.57 3.5 3.5S64.422 68.976 62.492 68.976zM70.492 46.976c1.93 0 3.5-1.57 3.5-3.5s-1.57-3.5-3.5-3.5-3.5 1.57-3.5 3.5S68.562 46.976 70.492 46.976zM70.492 40.976c1.378 0 2.5 1.122 2.5 2.5s-1.122 2.5-2.5 2.5-2.5-1.122-2.5-2.5S69.114 40.976 70.492 40.976zM73.992 55.476c0-1.93-1.57-3.5-3.5-3.5s-3.5 1.57-3.5 3.5 1.57 3.5 3.5 3.5S73.992 57.406 73.992 55.476zM67.992 55.476c0-1.378 1.122-2.5 2.5-2.5s2.5 1.122 2.5 2.5-1.122 2.5-2.5 2.5S67.992 56.855 67.992 55.476zM76.492 52.976c1.93 0 3.5-1.57 3.5-3.5s-1.57-3.5-3.5-3.5-3.5 1.57-3.5 3.5S74.562 52.976 76.492 52.976zM76.492 46.976c1.378 0 2.5 1.122 2.5 2.5s-1.122 2.5-2.5 2.5-2.5-1.122-2.5-2.5S75.114 46.976 76.492 46.976zM64.492 52.976c1.93 0 3.5-1.57 3.5-3.5s-1.57-3.5-3.5-3.5-3.5 1.57-3.5 3.5S62.562 52.976 64.492 52.976zM64.492 46.976c1.378 0 2.5 1.122 2.5 2.5s-1.122 2.5-2.5 2.5-2.5-1.122-2.5-2.5S63.114 46.976 64.492 46.976zM38.492 50.455v-1.957c0-.929-.756-1.686-1.686-1.686h-3.4v-3.4c0-.929-.756-1.686-1.686-1.686h-1.957c-.929 0-1.686.756-1.686 1.686v3.4h-3.4c-.929 0-1.686.756-1.686 1.686v1.957c0 .929.756 1.686 1.686 1.686h3.4v3.4c0 .929.756 1.686 1.686 1.686h1.957c.929 0 1.686-.756 1.686-1.686v-3.4h3.4C37.736 52.14 38.492 51.384 38.492 50.455zM32.906 51.14c-.276 0-.5.224-.5.5v3.9c0 .378-.308.686-.686.686h-1.957c-.378 0-.686-.308-.686-.686v-3.9c0-.276-.224-.5-.5-.5h-3.9c-.378 0-.686-.308-.686-.686v-1.957c0-.378.308-.686.686-.686h3.9c.276 0 .5-.224.5-.5v-3.9c0-.378.308-.686.686-.686h1.957c.378 0 .686.308.686.686v3.9c0 .276.224.5.5.5h3.9c.378 0 .686.308.686.686v1.957c0 .378-.308.686-.686.686H32.906z"/></svg>